<svg width="632" height="72" viewBox="0 0 632 72" fill="none" xmlns="http://www.w3.org/2000/svg">
<g opacity="0.3">
<circle cx="20" cy="36" r="20" fill="#F3F3FA"/>
<path d="M25.0954 37.3634L21.7073 40.7639C21.5694 40.9026 21.492 41.0903 21.492 41.2859C21.492 41.4815 21.5694 41.6692 21.7073 41.8079L24.2964 44.4006C24.5108 44.6101 24.7986 44.7274 25.0983 44.7274C25.3981 44.7274 25.6859 44.6101 25.9003 44.4006L33.8359 36.5684C33.9407 36.4649 34.0239 36.3417 34.0807 36.2058C34.1375 36.0699 34.1668 35.9241 34.1668 35.7768C34.1668 35.6295 34.1375 35.4837 34.0807 35.3479C34.0239 35.212 33.9407 35.0887 33.8359 34.9853L25.901 27.16C25.6866 26.9505 25.3988 26.8333 25.0991 26.8333C24.7993 26.8333 24.5115 26.9505 24.2971 27.16L21.7081 29.7527C21.5701 29.8914 21.4927 30.0791 21.4927 30.2747C21.4927 30.4703 21.5701 30.658 21.7081 30.7967L25.0961 34.1972C25.3058 34.4042 25.4722 34.6507 25.5858 34.9225C25.6994 35.1942 25.7578 35.4859 25.7577 35.7805C25.7577 36.075 25.6991 36.3666 25.5854 36.6384C25.4717 36.9101 25.3051 37.1565 25.0954 37.3634Z" fill="#0A6E5C"/>
<path d="M14.9065 37.3634L18.2946 40.7639C18.4325 40.9026 18.5099 41.0903 18.5099 41.2859C18.5099 41.4815 18.4325 41.6692 18.2946 41.8079L15.7056 44.4006C15.4912 44.6101 15.2033 44.7274 14.9036 44.7274C14.6039 44.7274 14.316 44.6101 14.1016 44.4006L6.16425 36.5684C6.05943 36.4649 5.9762 36.3417 5.9194 36.2058C5.86259 36.0699 5.83334 35.9241 5.83334 35.7768C5.83334 35.6295 5.86259 35.4837 5.9194 35.3479C5.9762 35.212 6.05943 35.0887 6.16425 34.9853L14.1013 27.16C14.3157 26.9505 14.6035 26.8333 14.9032 26.8333C15.203 26.8333 15.4908 26.9505 15.7052 27.16L18.2942 29.7527C18.4322 29.8914 18.5096 30.0791 18.5096 30.2747C18.5096 30.4703 18.4322 30.658 18.2942 30.7967L14.9065 34.1976C14.6969 34.4045 14.5305 34.6509 14.4169 34.9227C14.3033 35.1944 14.2448 35.486 14.2448 35.7805C14.2448 36.075 14.3033 36.3666 14.4169 36.6383C14.5305 36.91 14.6969 37.1565 14.9065 37.3634Z" fill="#21BF73"/>
<path d="M15.7953 36.4274C15.6238 36.2557 15.5274 36.023 15.5274 35.7803C15.5274 35.5376 15.6238 35.3049 15.7953 35.1332L19.354 31.5745C19.5257 31.403 19.7584 31.3066 20.0011 31.3066C20.2438 31.3066 20.4765 31.403 20.6482 31.5745L24.2069 35.1332C24.3784 35.3049 24.4748 35.5376 24.4748 35.7803C24.4748 36.023 24.3784 36.2557 24.2069 36.4274L20.6478 39.9857C20.4761 40.1573 20.2434 40.2536 20.0007 40.2536C19.7581 40.2536 19.5253 40.1573 19.3537 39.9857L15.7953 36.4274Z" fill="#21BF73"/>
</g>
<g opacity="0.5">
<circle cx="72" cy="36" r="24" fill="#EAF2FE"/>
<path d="M62.5088 39.1759L63.5864 31.0541L54.225 24.5499L62.7782 27.4481L64.7987 24.3477L72.1732 19.7644L88.4378 28.7287L89.2796 42.4111L82.0397 52.4875L76.3151 53.3637L79.2785 47.9379V42.7143L77.1233 38.6367L74.9345 37.1875L71.5671 40.6586V44.332L68.9406 46.7921L65.6068 47.1965L64.1252 48.039L61.7007 47.264L60.6904 43.6243L62.5088 41.0631V39.1759Z" fill="white"/>
<path d="M77.4602 24.4824C75.6755 24.1117 73.7224 24.2128 73.7224 24.2128C73.7224 24.2128 73.0826 27.1784 69.1091 27.9535C69.1427 27.9535 74.3622 29.7397 77.4602 24.4824Z" fill="#94A6C3"/>
<path d="M79.0765 51.3752C81.2316 49.6901 82.848 47.3648 83.5888 44.7362C83.6225 44.6351 83.9256 44.4666 84.1276 44.3318C84.4643 44.1296 84.8011 43.9611 84.8684 43.6915C85.0031 42.9164 85.0704 42.1075 85.0704 41.2987C85.0704 40.9955 84.7674 40.6922 84.4643 40.3889C84.2286 40.1867 83.9929 39.9507 83.9929 39.7822C83.6561 36.7155 82.2419 33.851 79.9857 31.7616L79.75 31.9975C81.9388 34.0532 83.3531 36.8503 83.6561 39.816C83.6898 40.0856 83.9592 40.3552 84.2286 40.6248C84.4643 40.827 84.7337 41.1303 84.7337 41.2651C84.7337 42.0402 84.6664 42.8153 84.5317 43.5904C84.498 43.7252 84.1949 43.86 83.9592 43.9948C83.6225 44.1633 83.3194 44.3318 83.2521 44.6014C82.4439 47.466 80.5918 49.9597 78.1336 51.5774C78.5714 50.6338 79.9521 47.567 80.6929 46.0168L80.5581 41.0291L76.2815 36.884L73.857 37.2211L71.1968 41.5347C71.1968 41.5347 72.4427 43.1186 70.6917 44.9721C68.9743 46.7919 67.6273 47.1964 67.6273 47.1964L66.3814 46.5223C66.7518 46.0505 67.4926 45.3428 68.0651 44.871C69.0416 44.0622 70.0182 43.9948 70.0182 43.1186C70.0519 41.2987 68.0988 41.8043 68.0988 41.8043L67.3917 42.4783L67.0886 44.9721L65.6069 46.8256L65.4385 46.7919L63.014 46.2527C63.014 46.2527 64.4957 45.4776 64.7314 44.6014C64.9671 43.7589 64.26 40.9618 64.2263 40.7932C64.26 40.827 64.9335 41.3999 65.2365 42.3435C65.7753 40.8607 66.4825 39.4452 66.6845 39.3105C66.8865 39.1756 69.6141 37.7266 69.6141 37.7266L68.7049 40.1193L69.3784 39.7485L70.9948 35.7719C70.9948 35.7719 72.5774 34.9968 73.756 34.9968C75.8775 34.9631 79.0091 32.3682 77.5948 27.7175C77.9989 27.886 85.0031 31.3908 86.2154 38.2658C87.1245 43.5567 84.1276 48.5107 79.0765 51.3752Z" fill="#94A6C3"/>
<path d="M71.062 25.2237C71.8364 24.3139 71.5334 22.9658 71.5334 22.9658L69.2773 26.3021C69.2435 26.3021 70.0854 26.3359 71.062 25.2237Z" fill="#0A192B"/>
<path d="M63.4851 43.4559L63.7545 42.1079C63.7545 42.1079 62.6433 44.0625 62.5423 44.3321C62.4412 44.6354 62.6096 45.1746 63.0474 45.1409C63.4851 45.1072 64.0239 44.4669 64.0239 43.9951C64.0239 43.3885 63.4851 43.4559 63.4851 43.4559Z" fill="#0A192B"/>
<path d="M83.4877 22.0223C83.4877 22.0223 85.1714 22.0897 86.9225 22.2919C82.9826 19.1915 79.2449 18.2816 76.2142 18.2816C72.0386 18.2816 69.2099 20.0003 69.0416 20.1014L70.3549 18.012C70.3549 18.012 65.1018 17.5065 63.2497 23.067C62.7782 21.8875 62.3405 20.1688 62.3405 20.1688C62.3405 20.1688 59.6129 22.5615 60.8925 26.5382C57.7608 25.3923 53.2822 23.8084 53.1138 23.7747C52.8781 23.741 52.8108 23.8421 52.8108 23.8421C52.8108 23.8421 52.7434 23.9433 52.9455 24.1117C53.3159 24.4151 60.3874 29.6386 61.9364 30.6496C61.5996 31.8628 61.5996 32.4357 61.9364 33.0086C62.4078 33.7837 62.4415 34.1881 62.3742 34.761C62.3068 35.3339 61.7007 40.2879 61.566 40.8946C61.4313 41.5011 60.017 43.6579 60.0843 44.2983C60.1517 44.9386 61.0272 47.6683 61.8017 47.9716C62.3742 48.1738 63.7885 48.6119 64.7313 48.6119C65.068 48.6119 65.3711 48.5445 65.5059 48.4097C66.0783 47.9042 66.2466 47.8031 66.6508 47.8031C66.6845 47.8031 66.7181 47.8031 66.7518 47.8031C66.9201 47.8031 67.1222 47.8368 67.3579 47.8368C67.8967 47.8368 68.6039 47.7357 69.109 47.2639C69.8498 46.5225 71.1294 45.5114 71.5335 45.0397C72.0386 44.3994 72.3079 43.5232 72.1733 42.6469C72.0723 41.8381 72.5101 41.1304 73.0151 40.4227C73.6549 39.5802 74.8335 38.0637 74.8335 38.0637C77.157 39.8161 78.605 42.4785 78.605 45.4441C78.605 50.7013 74.0253 54.9475 68.3681 54.9475C67.4926 54.9475 66.6508 54.8465 65.8089 54.6443C68.4018 55.5542 70.5906 55.8575 72.3754 55.8575C76.1805 55.8575 78.201 54.4758 78.201 54.4758C78.201 54.4758 77.4938 55.3857 76.3489 56.4304C76.3825 56.4304 76.3825 56.4304 76.3825 56.4304C82.6796 55.5542 85.7439 50.3643 85.7439 50.3643C85.7439 50.3643 85.5082 52.0493 85.2051 53.1952C93.5899 46.8932 92.1757 39.0073 92.1419 38.7377C92.2093 38.8388 93.0512 39.8498 93.4889 40.389C94.8358 26.5045 83.4877 22.0223 83.4877 22.0223ZM70.5906 44.1971C70.456 44.3657 69.8834 44.8712 69.4794 45.2418C69.0753 45.6126 68.6375 45.9833 68.3008 46.3202C68.1661 46.4551 67.8967 46.5225 67.4926 46.5225C67.3579 46.5225 67.2232 46.5225 67.1222 46.5225C67.0549 46.5225 66.9875 46.5225 66.9201 46.5225C66.8528 46.5225 66.8191 46.5225 66.7854 46.5225C66.6845 46.5225 66.5834 46.5225 66.4824 46.5225C66.9875 45.8485 68.4691 44.2983 68.9743 43.9612C69.5804 43.5569 69.8834 43.1524 69.513 42.4448C69.1426 41.737 68.1661 41.9055 68.1661 41.9055C68.1661 41.9055 68.7386 41.6697 69.2437 41.6697C68.6039 41.5011 67.7957 41.6697 67.4253 42.0403C67.0212 42.411 67.0885 43.7253 66.9201 44.5679C66.7518 45.4441 66.1793 45.8822 65.3038 46.691C64.8324 47.1291 64.4956 47.2639 64.2262 47.2639C63.6538 47.1628 62.9803 46.9943 62.5089 46.8258C62.1722 46.3877 61.667 44.9386 61.5323 44.332C61.6333 43.995 62.0374 43.2873 62.2395 42.8828C62.6435 42.1077 62.8793 41.6697 62.9466 41.2652C63.0813 40.6923 63.519 37.1537 63.6874 35.671C64.1252 36.2439 64.7313 37.1875 64.5967 37.7941C65.5732 36.4124 64.866 35.0643 64.5293 34.5251C64.2262 33.9859 63.8221 32.9075 64.1589 31.7617C64.4956 30.6159 65.7079 27.448 65.7079 27.448C65.7079 27.448 66.112 28.1558 66.6845 28.0209C67.2569 27.8862 71.8702 20.9439 71.8702 20.9439C71.8702 20.9439 73.1162 23.6736 71.8029 25.6619C70.456 27.6503 69.1426 28.0209 69.1426 28.0209C69.1426 28.0209 70.9947 28.358 72.7121 27.1111C73.4192 28.7624 74.0927 30.4811 74.1264 30.717C74.0253 30.9529 72.6784 34.1881 72.5437 34.3904C72.4763 34.4577 72.005 34.5926 71.6682 34.66C71.0957 34.8284 70.7589 34.9296 70.6243 35.0306C70.3885 35.2329 69.311 38.1985 68.8059 39.6476C68.1998 39.8161 67.5936 40.1531 67.1559 40.8271C67.3916 40.6586 68.1324 40.5575 68.6712 40.4901C69.1426 40.4564 70.5906 41.2315 70.9611 42.6806C70.9611 42.7144 70.9611 42.7144 70.9611 42.7481C71.0284 43.2873 70.86 43.7928 70.5906 44.1971ZM67.4253 44.6016C67.7283 44.1634 67.6947 43.422 67.7283 43.1861C67.762 42.9502 67.8293 42.5122 68.0987 42.4448C68.3681 42.3773 69.0079 42.4785 69.0079 42.9502C69.0079 43.3883 68.5365 43.4895 68.1998 43.7928C67.964 44.0287 67.4926 44.5342 67.4253 44.6016ZM80.8612 38.1648C81.1979 36.4461 81.2316 34.9633 81.1306 33.75C82.4438 35.5025 83.252 37.6256 83.4877 39.8161C83.5214 40.0857 83.7908 40.3553 84.0602 40.625C84.2959 40.8271 84.5653 41.0967 84.5653 41.2652C84.5653 42.0403 84.4979 42.8154 84.3632 43.5906C84.3296 43.6916 84.0265 43.8602 83.7908 43.9949C83.4541 44.1634 83.151 44.332 83.0837 44.6016C82.3429 47.1965 80.7601 49.4881 78.6387 51.1058C81.7703 47.8368 83.2857 42.4448 80.8612 38.1648ZM78.7397 51.4091C80.9285 49.724 82.6122 47.365 83.353 44.7026C83.3867 44.6016 83.6898 44.433 83.8919 44.2983C84.2286 44.1298 84.5653 43.9275 84.6327 43.6579C84.7674 42.8828 84.8347 42.074 84.8347 41.2652C84.8347 40.9619 84.5316 40.6586 84.2286 40.3553C84.0602 40.1531 83.7908 39.9172 83.7908 39.7487C83.5214 37.2886 82.5449 34.9633 81.0295 33.0424C80.3561 28.9983 77.6621 27.7513 77.5948 27.7176C77.6621 27.8188 79.4132 30.3463 78.201 33.312C76.955 36.3113 73.756 35.8394 73.4866 35.8731C73.2172 35.8731 72.1733 37.2212 70.86 39.715C70.6916 39.6476 69.9845 39.4791 69.1763 39.6139C69.7825 37.9289 70.6916 35.5361 70.86 35.3339C70.9273 35.2665 71.4324 35.1318 71.7692 35.0306C72.409 34.8622 72.7121 34.761 72.8131 34.6263C72.8805 34.5251 73.2172 33.75 73.554 32.9412C73.8569 32.9412 74.6315 32.8738 74.6988 32.8401C74.7662 32.7728 75.4059 31.1214 75.4059 30.9192C75.4059 30.7507 74.0927 27.4817 73.5876 26.2349C73.8233 25.9653 74.0591 25.6282 74.2948 25.2576C81.1979 25.999 86.5857 31.8628 86.5857 38.9736C86.5857 44.433 83.3867 49.1848 78.7397 51.4091Z" fill="#0A192B"/>
<path d="M69.7825 33.2106C70.4223 32.4692 70.0856 31.0875 68.907 30.8516C69.21 30.1439 69.6478 28.7285 69.6478 28.7285C69.6478 28.7285 66.2131 34.1206 65.91 34.2216C65.6069 34.3228 65.3038 33.1432 65.3038 33.1432C64.6641 35.6034 66.3814 35.9404 66.5835 35.1653C67.5263 34.9294 69.1427 33.9183 69.7825 33.2106Z" fill="#0A192B"/>
<path d="M66.8531 34.5254L68.6041 31.5261C68.6041 31.5261 69.6143 32.0316 69.1092 32.8404C68.4694 33.784 66.8531 34.5254 66.8531 34.5254Z" fill="#FFD923"/>
<path d="M88.5049 48.4098C87.9998 49.0838 87.4273 49.7915 86.7538 50.4656C91.0978 42.1079 86.9559 34.4579 86.7875 34.1545C87.0906 34.4579 87.3937 34.7949 87.663 35.0981C90.9968 38.8052 91.4009 44.3657 88.5049 48.4098Z" fill="#D82122"/>
<path d="M92.5461 37.6594C91.0308 33.5817 88.8756 30.1105 84.1276 26.9763C79.5479 23.9434 74.6316 24.1793 74.3621 24.213C74.3285 24.213 74.2948 24.213 74.2948 24.213C74.4632 24.1455 74.6316 24.1118 74.7999 24.0781C75.8438 23.7411 77.1907 23.4715 78.5377 23.303C82.1071 22.7975 85.7103 24.0107 88.1684 26.6057C88.2021 26.6394 88.2021 26.6394 88.2358 26.6731C91.0308 29.6387 92.4787 33.3458 92.5461 37.6594Z" fill="#D82122"/>
<path d="M83.05 20.9778C78.0326 20.0341 74.7998 20.5059 72.4764 21.3822C72.409 21.1126 72.1733 20.5733 71.9713 20.1352C71.2641 20.9778 70.5232 21.9888 70.0518 22.6291C68.7722 23.5053 68.2334 24.3478 68.2334 24.3478C68.9742 21.8203 71.1294 19.933 73.7559 19.4612C74.4967 19.3264 75.3049 19.259 76.1805 19.259C78.504 19.2927 80.8275 19.8656 83.05 20.9778Z" fill="#D82122"/>
<path d="M64.4957 27.4481C60.5558 27.3133 61.8691 22.7301 61.9365 22.4604C61.9365 22.4942 62.2059 26.0664 64.4957 27.4481Z" fill="#D82122"/>
<path d="M68.3677 19.1914C65.337 21.0112 65.9432 25.3586 65.9432 25.3586C63.0472 20.9438 68.1321 19.2925 68.3677 19.1914Z" fill="#D82122"/>
<path d="M63.3842 28.6612C63.5862 28.8297 63.7882 29.133 63.5526 29.5711C63.4178 29.807 63.2158 29.7733 62.9127 29.6385C62.5087 29.4363 60.0841 28.0209 57.8953 26.5718C60.3872 27.448 62.9127 28.3916 63.3169 28.5938C63.3169 28.5938 63.3505 28.6275 63.3842 28.6612Z" fill="white"/>
</g>
<path d="M132 64C147.464 64 160 51.464 160 36C160 20.536 147.464 8 132 8C116.536 8 104 20.536 104 36C104 51.464 116.536 64 132 64Z" fill="url(#paint0_linear_3031_1365)"/>
<path opacity="0.25" fill-rule="evenodd" clip-rule="evenodd" d="M132 64.0001C147.464 64.0001 160 51.4642 160 36.0002C160 30.0061 158.117 24.4519 154.909 19.8972L151.521 17.6713C150.54 17.0267 149.38 16.7093 148.208 16.7644L131.917 17.531C130.745 17.5862 129.62 18.0112 128.704 18.7451L115.975 28.9402C115.059 29.6742 114.399 30.6793 114.089 31.8117L109.784 47.5413C109.474 48.6737 109.53 49.875 109.945 50.9732L111.49 55.0616C116.602 60.5603 123.899 64.0001 132 64.0001Z" fill="url(#paint1_linear_3031_1365)"/>
<path opacity="0.25" fill-rule="evenodd" clip-rule="evenodd" d="M132 64.0001C147.464 64.0001 160 51.4641 160 36.0001C160 31.9683 159.148 28.1353 157.614 24.6718C156.89 24.3889 156.112 24.259 155.327 24.2959L139.037 25.0625C137.865 25.1177 136.74 25.5427 135.823 26.2766L123.095 36.4719C122.179 37.2057 121.518 38.2108 121.209 39.3432L116.904 55.0728C116.594 56.2051 116.65 57.4065 117.065 58.5046L117.648 60.0469C121.845 62.5574 126.754 64.0001 132 64.0001Z" fill="url(#paint2_linear_3031_1365)"/>
<path opacity="0.25" fill-rule="evenodd" clip-rule="evenodd" d="M132 63.9998C147.464 63.9998 160 51.4638 160 35.9998C160 34.7824 159.922 33.5831 159.772 32.4065L145.214 33.0917C144.041 33.1468 142.916 33.5718 142 34.3058L129.271 44.5011C128.355 45.2348 127.695 46.2399 127.385 47.3723L123.219 62.5952C125.981 63.5067 128.933 63.9998 132 63.9998Z" fill="url(#paint3_linear_3031_1365)"/>
<path opacity="0.25" fill-rule="evenodd" clip-rule="evenodd" d="M159.694 40.1514C157.689 53.6465 146.053 63.9997 132 63.9997C131.954 63.9997 131.909 63.9997 131.863 63.9995L134.385 54.784C134.695 53.6517 135.355 52.6466 136.271 51.9128L149 41.7175C149.916 40.9835 151.041 40.5586 152.214 40.5034L159.694 40.1514Z" fill="url(#paint4_linear_3031_1365)"/>
<mask id="mask0_3031_1365" style="mask-type:luminance" maskUnits="userSpaceOnUse" x="168" y="4" width="64" height="64">
<path d="M200 4C217.664 4 232 18.336 232 36C232 53.664 217.664 68 200 68C182.336 68 168 53.664 168 36C168 18.336 182.336 4 200 4Z" fill="white"/>
</mask>
<g mask="url(#mask0_3031_1365)">
<path d="M168 4L232 68M232 4L168 68" stroke="black" stroke-miterlimit="22.9256"/>
</g>
<path d="M200 4C217.664 4 232 18.336 232 36C232 53.664 217.664 68 200 68C182.336 68 168 53.664 168 36C168 18.336 182.336 4 200 4Z" fill="url(#paint5_linear_3031_1365)"/>
<mask id="mask1_3031_1365" style="mask-type:luminance" maskUnits="userSpaceOnUse" x="182" y="33" width="36" height="28">
<path d="M199.974 41.683L185.715 33.5422L185.331 34.131C180.954 40.8638 181.926 49.6702 187.686 55.3278C194.47 61.9838 205.478 61.9838 212.262 55.3278C218.022 49.6702 218.995 40.8638 214.618 34.131L214.234 33.5422L199.974 41.683Z" fill="white"/>
</mask>
<g mask="url(#mask1_3031_1365)">
<path d="M199.974 60.8319C209.574 60.8319 217.357 53.0496 217.357 43.4495C217.357 33.8495 209.574 26.0671 199.974 26.0671C190.374 26.0671 182.592 33.8495 182.592 43.4495C182.592 53.0496 190.374 60.8319 199.974 60.8319Z" fill="url(#paint6_radial_3031_1365)"/>
</g>
<path d="M199.974 23.5071L187.686 30.5215L199.974 37.5359L212.262 30.5215L199.974 23.5071Z" fill="url(#paint7_radial_3031_1365)"/>
<path d="M200 25.325L185.715 33.5426L199.974 41.6834L214.208 33.5426L200 25.325Z" fill="url(#paint8_radial_3031_1365)"/>
<path d="M199.974 11.6799L187.686 30.5215L199.974 37.5359V11.6799Z" fill="url(#paint9_linear_3031_1365)"/>
<path d="M199.974 37.5359L212.262 30.5215L199.974 11.6799V37.5359Z" fill="url(#paint10_linear_3031_1365)"/>
<circle cx="276" cy="36" r="36" fill="white"/>
<path d="M282.98 54.3077C282.595 53.827 282.21 53.2981 281.922 52.7693L281.778 52.5289L275.672 41.4712L269.47 52.5769L269.326 52.8173C268.989 53.3462 268.653 53.875 268.268 54.3559C268.076 54.5962 267.835 54.8366 267.643 55.0769H283.653C283.412 54.8366 283.172 54.5962 282.98 54.3077Z" fill="#7BD1E0"/>
<path d="M259.711 36.1828H259.759H259.807H260.047L272.739 36.4231L266.201 25.5097L266.057 25.2693C265.72 24.7404 265.48 24.1635 265.239 23.5866C265.143 23.2981 265.047 23.0097 264.951 22.7212L256.97 36.5193C257.259 36.4231 257.547 36.3751 257.884 36.327C258.461 36.2308 259.086 36.1828 259.711 36.1828Z" fill="#7BD1E0"/>
<path d="M285.191 25.2693L285.047 25.5097L278.509 36.3751L291.201 36.1347H291.441H291.489H291.537H291.586C292.211 36.1347 292.836 36.1828 293.412 36.279C293.701 36.327 293.989 36.3751 294.278 36.4713L286.297 22.7212C286.201 23.0097 286.105 23.2981 286.009 23.5866C285.816 24.1635 285.528 24.6924 285.191 25.2693Z" fill="#7BD1E0"/>
<path d="M268.941 23.5866L269.085 23.827L275.624 34.7404L282.162 23.827L282.307 23.6347L282.883 22.4328C283.22 21.6154 283.364 20.702 283.364 19.7404C283.364 15.4616 279.903 12 275.624 12C271.345 12 267.883 15.4616 267.883 19.7404C267.883 20.702 268.076 21.6154 268.364 22.4328C268.508 22.8174 268.701 23.202 268.941 23.5866Z" fill="url(#paint11_linear_3031_1365)"/>
<path d="M291.537 54.9813C294.23 54.9813 296.826 53.5871 298.22 51.1352C299.614 48.7794 299.566 45.9429 298.364 43.6833L298.028 43.1063C297.403 42.0968 296.489 41.2313 295.384 40.5582C294.566 40.0775 293.701 39.789 292.787 39.6447C292.355 39.5967 291.922 39.5486 291.489 39.5486H291.249L278.509 39.789L284.711 50.9429L284.855 51.1833C285.047 51.5679 285.336 51.9045 285.576 52.241C286.153 52.914 286.826 53.5391 287.691 54.0198C288.893 54.6449 290.191 54.9813 291.537 54.9813Z" fill="url(#paint12_linear_3031_1365)"/>
<path d="M259.999 39.5486H259.758C259.326 39.5486 258.893 39.5967 258.46 39.6447C257.595 39.789 256.681 40.0775 255.864 40.5582C252.162 42.6737 250.912 47.4333 253.028 51.1352C254.47 53.6352 257.066 54.9813 259.71 54.9813C261.008 54.9813 262.355 54.6449 263.556 53.9237C264.374 53.4429 265.095 52.866 265.672 52.1448C265.96 51.8082 266.201 51.4236 266.393 51.0872L266.537 50.8467L272.691 39.6929L259.999 39.5486Z" fill="url(#paint13_linear_3031_1365)"/>
<g opacity="0.3">
<circle cx="612" cy="36" r="20" fill="white"/>
<path fill-rule="evenodd" clip-rule="evenodd" d="M612 52.3334C621.021 52.3334 628.333 45.0207 628.333 36.0001C628.333 26.9794 621.021 19.6667 612 19.6667C602.979 19.6667 595.667 26.9794 595.667 36.0001C595.667 45.0207 602.979 52.3334 612 52.3334ZM612 54.3334C622.125 54.3334 630.333 46.1253 630.333 36.0001C630.333 25.8749 622.125 17.6667 612 17.6667C601.875 17.6667 593.667 25.8749 593.667 36.0001C593.667 46.1253 601.875 54.3334 612 54.3334Z" fill="#121212"/>
<path d="M613.903 29.6915C613.655 29.157 613.407 28.6224 613.158 28.0868C616.733 26.6897 616.998 26.4508 618.234 23.427C618.558 23.7865 618.831 24.1208 619.138 24.4237C620.724 25.9959 622.578 27.1823 624.581 28.1466C624.822 28.2629 624.97 28.3436 624.869 28.6811C623.204 34.192 621.589 39.7197 619.341 45.0325C618.88 46.1215 618.349 47.1801 617.843 48.2491C617.783 48.3749 617.772 48.5698 617.532 48.5709C618.293 44.4739 617.825 40.4701 616.628 36.5314C615.95 34.3 615.082 32.1357 614.091 30.0237C614.05 29.9367 614.032 29.8162 613.905 29.7921C613.906 29.7586 613.905 29.724 613.903 29.6904V29.6915Z" fill="#121212"/>
<path d="M610.348 27.9663C609.504 29.2313 608.771 30.5488 608.196 31.9511C607.053 34.7422 606.387 37.6486 606.052 40.6409C605.741 43.4194 605.665 46.2053 605.663 49.0309C605.397 48.4639 605.128 47.899 604.867 47.3309C602.831 42.9006 600.965 38.4074 599.833 33.6459C599.421 31.9155 599.133 30.1641 599.013 28.3845C598.989 28.0197 599.118 27.9191 599.436 27.8384C601.804 27.2378 604.112 26.4884 606.117 25.0253C606.269 24.9142 606.377 24.8262 606.513 25.0767C607.321 26.5555 608.647 27.3626 610.197 27.8688C610.244 27.8845 610.283 27.9233 610.349 27.9673L610.348 27.9663Z" fill="#121212"/>
<path d="M613.903 29.6917C613.906 29.7252 613.908 29.7587 613.905 29.7933C613.069 30.854 613.184 32.0918 613.212 33.3306C613.329 38.6435 612.711 43.8798 611.486 49.0458C611.334 49.6873 611.005 50.2648 610.61 50.859C610.61 49.9147 610.643 48.9693 610.604 48.026C610.473 44.7769 609.931 41.5802 609.379 38.3814C608.963 35.9708 609.18 33.5445 609.532 31.1349C609.561 30.9347 609.643 30.8393 609.868 30.832C611.306 30.7859 612.638 30.3582 613.902 29.6917H613.903Z" fill="#141414"/>
</g>
<g opacity="0.5">
<circle cx="560" cy="36" r="24" fill="white"/>
<path fill-rule="evenodd" clip-rule="evenodd" d="M545.546 16.8386C545.609 16.7908 545.673 16.7433 545.737 16.696L548.262 19.1619L551.924 23.2294L553.751 25.268C553.917 25.4562 554.083 25.6427 554.25 25.829L554.254 25.8342L554.254 25.8343C554.693 26.3257 555.131 26.8171 555.569 27.3384L555.669 27.4601L555.691 27.6489C555.72 27.9048 555.705 28.164 555.647 28.4149C555.58 28.6744 555.462 28.9181 555.301 29.1322C555.002 29.5226 554.606 29.827 554.152 30.0151C553.744 30.1916 553.312 30.3058 552.871 30.3536C552.782 30.365 552.69 30.372 552.6 30.3789L552.595 30.3793L552.58 30.3804C552.3 30.3911 552.031 30.4915 551.812 30.6667C551.594 30.8421 551.436 31.0832 551.364 31.3547C551.331 31.4898 551.306 31.6268 551.29 31.7651C551.265 31.9726 551.252 32.1851 551.237 32.4148L551.237 32.4178C551.227 32.5834 551.216 32.7581 551.2 32.9464C551.105 33.7132 550.884 34.4588 550.547 35.1531C550.478 35.299 550.407 35.4405 550.338 35.5795L550.338 35.58C549.968 36.3245 549.634 36.9972 549.73 37.898C549.805 38.5923 550.159 39.0575 550.629 39.5373C550.852 39.7665 551.148 39.9624 551.455 40.1658L551.456 40.1665C552.317 40.7362 553.266 41.3644 552.953 42.9471C552.697 44.2295 550.581 45.5753 547.606 46.0453C547.894 46.0013 547.259 44.9132 547.188 44.7911L547.188 44.7909L547.184 44.7836C547.104 44.6575 547.022 44.5332 546.94 44.4092L546.934 44.4005L546.931 44.3955C546.69 44.0306 546.45 43.6675 546.263 43.265C545.765 42.2092 545.535 40.9876 545.739 39.8307C545.923 38.7839 546.612 37.9476 547.275 37.1424L547.276 37.1418C547.384 37.0105 547.491 36.8801 547.596 36.7497C548.483 35.6427 549.414 34.1922 549.62 32.7552C549.638 32.6303 549.653 32.4942 549.67 32.351L549.67 32.3461C549.699 32.091 549.731 31.8137 549.781 31.5374C549.854 31.0571 550.004 30.5917 550.224 30.1588C550.374 29.875 550.572 29.6191 550.809 29.4026C550.932 29.2876 551.013 29.1344 551.04 28.9674C551.066 28.8006 551.036 28.6296 550.954 28.4818L546.212 19.9133L553.023 28.3576C553.101 28.4555 553.199 28.5351 553.311 28.5905C553.422 28.646 553.545 28.6761 553.669 28.6788C553.794 28.6815 553.917 28.6567 554.031 28.6059C554.145 28.5553 554.246 28.48 554.328 28.3857C554.414 28.2846 554.463 28.1567 554.466 28.0235C554.47 27.8904 554.427 27.7603 554.346 27.655C554.034 27.2548 553.71 26.8494 553.387 26.4456L553.372 26.426C553.239 26.26 553.106 26.0941 552.975 25.9293L551.261 23.7982L547.82 19.543L545.546 16.8386ZM573.173 31.2897L573.166 31.2786C573.055 31.0716 572.928 30.8734 572.788 30.6855C572.373 30.1217 571.779 29.7177 571.104 29.5408C570.654 29.4243 570.195 29.3517 569.731 29.324C569.397 29.2998 569.057 29.2829 568.714 29.2658L568.703 29.2653L568.679 29.2641C568.553 29.2579 568.426 29.2516 568.3 29.2449C567.33 29.1913 566.337 29.0915 565.367 28.8138C565.125 28.7444 564.882 28.6688 564.648 28.5776C564.527 28.5337 564.414 28.4862 564.294 28.435C564.174 28.3839 564.052 28.3255 563.93 28.2634C563.474 28.0124 563.052 27.7042 562.673 27.3464C561.985 26.7036 561.433 25.9813 560.891 25.2718L560.891 25.2716L560.752 25.0897C560.198 24.3195 559.603 23.5797 558.97 22.8733C558.345 22.1813 557.607 21.6021 556.788 21.161C555.939 20.7316 555.017 20.4672 554.071 20.3816C555.053 20.2745 556.046 20.3962 556.973 20.7372C557.909 21.1022 558.764 21.6478 559.491 22.3435C559.966 22.7905 560.411 23.2676 560.825 23.772C563.904 23.1631 566.401 23.7038 568.32 24.7535L568.364 24.7755C568.975 25.1082 569.547 25.5077 570.071 25.9665C570.154 26.0395 570.237 26.1127 570.313 26.1869C570.722 26.5642 571.102 26.9713 571.452 27.4047L571.478 27.4401C572.612 28.882 573.172 30.3811 573.173 31.2897ZM570.189 26.0626C570.235 26.1043 570.281 26.1462 570.327 26.1884C570.272 26.1416 570.217 26.0903 570.161 26.0388L570.157 26.0349C570.133 26.0124 570.109 25.99 570.084 25.9679C570.109 25.9903 570.134 26.0127 570.159 26.0352L570.179 26.0537L570.189 26.0626ZM563.219 28.8236C562.734 32.556 565.996 33.8859 569.115 35.1571L569.115 35.1573C571.849 36.2719 574.473 37.3415 574.364 39.946C575.576 38.3628 576.097 34.0615 572.529 31.8474C571.016 30.9085 569.286 30.6606 567.673 30.4295L567.673 30.4295L567.673 30.4294C565.895 30.1746 564.26 29.9404 563.219 28.8236ZM558.343 31.3928C559.127 32.78 557.373 33.2098 556.55 33.289C555.302 33.4108 555.044 32.6886 555.288 31.7813C555.368 31.4565 555.545 31.1643 555.796 30.9443C556.047 30.7242 556.359 30.5871 556.69 30.5513C557.017 30.5213 557.345 30.5843 557.637 30.7331C557.929 30.8821 558.174 31.1107 558.343 31.3928ZM554.21 21.2863C554.995 21.4008 555.797 21.715 556.313 22.3142C556.83 22.9133 557.02 23.6928 557.169 24.4344C557.189 24.53 557.209 24.6265 557.228 24.7224L557.228 24.7229L557.229 24.724C557.326 25.2044 557.424 25.6862 557.611 26.1393C557.683 26.3126 557.776 26.4718 557.869 26.6313C557.918 26.7161 557.968 26.8012 558.014 26.8883C558.06 26.9748 558.121 27.0576 558.183 27.1408C558.27 27.2583 558.358 27.3766 558.403 27.507C558.417 27.539 558.422 27.5741 558.418 27.6087C558.414 27.6434 558.401 27.6763 558.38 27.7042C558.106 28.0087 557.367 27.6701 557.088 27.5338C556.606 27.2937 556.174 26.9631 555.816 26.5595C554.697 25.3112 554.119 23.5149 554.154 21.8794C554.162 21.6809 554.18 21.4829 554.21 21.2863ZM569.122 41.3891C567.838 39.5033 566.546 37.6064 567.347 35.3605C567.907 35.7477 568.558 36.1001 569.23 36.4634C570.961 37.3997 572.826 38.4087 573.6 40.2697C574.828 43.2119 573.423 46.9202 570.464 48.1477C571.986 45.5937 570.559 43.4984 569.122 41.3892L569.122 41.3891ZM557.183 41.5802C557.645 41.23 558.151 40.9414 558.687 40.7216C559.23 40.5034 559.793 40.3402 560.368 40.2345C560.725 40.1662 561.081 40.114 561.431 40.0628L561.431 40.0627C562.198 39.9505 562.934 39.8427 563.585 39.5792C564.053 39.3955 564.484 39.1273 564.857 38.7877C565.217 38.4514 565.493 38.034 565.662 37.5698C565.834 37.0801 565.905 36.5598 565.868 36.0415C565.825 35.4847 565.699 34.9376 565.496 34.4181C565.918 34.8597 566.226 35.399 566.391 35.9885C566.557 36.5779 566.575 37.1993 566.445 37.7976C566.296 38.4309 565.976 39.0105 565.52 39.4721C565.068 39.9192 564.523 40.2603 563.924 40.4707C563.353 40.672 562.757 40.7949 562.153 40.8361C561.786 40.8668 561.426 40.8835 561.072 40.8998L561.068 40.9L561.06 40.9004C560.857 40.9098 560.656 40.9192 560.456 40.9311C559.338 40.9782 558.235 41.197 557.183 41.5802ZM567.933 50.0347L567.984 49.9932L568.041 49.9477C567.647 50.1276 567.236 50.2684 566.815 50.3678C566.612 50.4121 566.406 50.4419 566.198 50.4567L565.896 50.4495C565.798 50.4406 565.701 50.4268 565.605 50.408C564.091 50.1424 563.887 48.618 563.71 47.2969C563.671 47.0069 563.634 46.7269 563.584 46.472C563.491 45.9984 563.347 45.5364 563.153 45.0946C562.938 44.6229 562.634 44.1973 562.258 43.8416C561.878 43.5024 561.442 43.2321 560.971 43.0426C560.52 42.8584 560.047 42.7356 559.564 42.6773C558.626 42.5623 557.675 42.6357 556.765 42.8929C555.888 43.1396 555.046 43.5012 554.263 43.9682C553.5 44.4308 552.785 44.9693 552.129 45.5757C552.18 45.5284 552.469 45.5787 552.646 45.6097C552.701 45.6192 552.745 45.627 552.768 45.6294C552.98 45.6561 553.192 45.6877 553.402 45.7316C553.819 45.8111 554.226 45.9377 554.614 46.1092C555.178 46.384 555.688 46.7581 556.12 47.2137C556.212 47.3042 556.299 47.3983 556.386 47.4937C556.578 47.7478 556.796 47.9808 557.036 48.1889C557.097 48.2451 557.159 48.2994 557.225 48.3511C557.578 48.6361 558.001 48.8204 558.449 48.8846C558.768 48.9242 559.092 48.8905 559.397 48.7859C559.547 48.7354 559.691 48.6671 559.825 48.5825C559.96 48.4969 560.083 48.3923 560.189 48.272C560.388 48.038 560.521 47.7545 560.574 47.4512C560.629 47.1599 560.601 46.8593 560.495 46.5828C560.393 46.3143 560.191 46.0959 559.932 45.974C560.155 46.1256 560.31 46.3583 560.366 46.6231C560.417 46.8763 560.397 47.139 560.309 47.3818C560.228 47.6146 560.086 47.8208 559.898 47.9785C559.808 48.053 559.708 48.1141 559.601 48.16C559.493 48.2039 559.381 48.2349 559.266 48.2525C557.917 48.4803 556.858 46.8715 557.595 45.7231C557.876 45.2834 558.348 45.0557 558.853 44.9924C560.089 44.8414 561.145 45.6561 561.762 46.6681C562.028 47.1036 562.225 47.575 562.422 48.0463C562.545 48.3409 562.669 48.6354 562.808 48.9211C563.342 50.0111 564.253 50.9756 565.543 50.9999C566.02 51.0038 566.49 50.8967 566.918 50.6869C567.124 50.5916 567.322 50.4808 567.511 50.3557C567.657 50.2571 567.793 50.1474 567.927 50.0395L567.933 50.0347ZM556.575 47.7063C556.538 47.6654 556.502 47.6242 556.465 47.5826L556.53 47.6552L556.575 47.7063Z" fill="#FC72FF"/>
</g>
<circle cx="500" cy="36" r="28" fill="#FFA36A"/>
<circle cx="500" cy="36" r="28" fill="url(#paint14_radial_3031_1365)"/>
<path opacity="0.2" d="M498.833 64L523.333 25.5L525.667 28.4167L526.25 33.0833L506.417 62.8333L498.833 64Z" fill="#FF5C59"/>
<path opacity="0.1" d="M515.167 31.3334L510.5 11.5001C511.472 10.7223 505.25 9.16675 500 9.16675C489.5 9.16675 481.917 15.7779 479.583 19.0834L472.583 34.2501L474.333 40.6667L515.167 31.3334Z" fill="white"/>
<path opacity="0.2" d="M484.833 22.5833L493 9.75H498.833L486.583 31.3333L484.833 22.5833Z" fill="#FF5C59"/>
<path d="M500.697 29.5337C499.753 30.4774 498.923 31.4565 498.226 32.4289L494.306 33.3151C494.257 33.3262 494.211 33.3527 494.178 33.3925L491.731 36.2169C491.636 36.3252 491.685 36.4976 491.822 36.5396L495.762 37.7882C495.658 38.5308 495.707 39.1872 495.923 39.722L494.69 40.9553C494.589 41.0569 494.589 41.2227 494.69 41.3243L495.521 42.1553C495.623 42.257 495.789 42.257 495.89 42.1553L497.124 40.9221C497.656 41.1387 498.315 41.1873 499.057 41.0834L500.306 45.024C500.35 45.161 500.52 45.2096 500.629 45.1146L503.453 42.668C503.491 42.6349 503.517 42.5907 503.53 42.5399L504.417 38.6192C505.387 37.9208 506.366 37.0921 507.312 36.1484C511.513 31.9471 512.159 25.7833 511.61 25.2352C511.062 24.6871 504.898 25.3346 500.697 29.5337ZM505.069 34.7782C504.24 35.6069 502.894 35.6069 502.065 34.7782C501.236 33.9494 501.236 32.6035 502.065 31.7747C502.894 30.9459 504.24 30.9459 505.069 31.7747C505.897 32.6035 505.897 33.9494 505.069 34.7782Z" fill="#E43B2A"/>
<path d="M500.467 29.2981C499.524 30.2418 498.693 31.2209 497.997 32.1933L494.076 33.0795C494.027 33.0906 493.981 33.1171 493.948 33.1569L491.501 35.9813C491.406 36.0896 491.455 36.262 491.592 36.304L495.532 37.5527C495.429 38.2952 495.477 38.9516 495.694 39.4864L494.461 40.7197C494.359 40.8213 494.359 40.9871 494.461 41.0887L495.292 41.9197C495.393 42.0214 495.559 42.0214 495.661 41.9197L496.894 40.6865C497.426 40.9031 498.085 40.9517 498.828 40.8478L500.076 44.7884C500.12 44.9254 500.291 44.974 500.399 44.879L503.223 42.4324C503.261 42.3993 503.287 42.3551 503.301 42.3043L504.187 38.3836C505.157 37.6853 506.136 36.8565 507.082 35.9128C511.283 31.7115 511.929 25.5477 511.381 24.9996C510.833 24.4515 504.669 25.099 500.467 29.2981ZM504.839 34.5426C504.01 35.3713 502.664 35.3713 501.835 34.5426C501.007 33.7138 501.007 32.3679 501.835 31.5391C502.664 30.7103 504.01 30.7103 504.839 31.5391C505.668 32.3679 505.668 33.7138 504.839 34.5426Z" fill="white"/>
<path d="M493.183 43.1948C492.911 42.923 492.469 42.923 492.197 43.1948L480.802 54.5899C481.127 54.9214 481.461 55.2463 481.804 55.5601L493.183 44.1805C493.455 43.9087 493.455 43.4667 493.183 43.1948Z" fill="white"/>
<path d="M492.971 47.0161C492.699 46.7443 492.257 46.7443 491.985 47.0161L482.674 56.3271C483.032 56.6276 483.397 56.9216 483.77 57.2023L492.971 48.0018C493.243 47.73 493.243 47.288 492.971 47.0161Z" fill="white"/>
<path d="M489.362 43.4092C489.09 43.1374 488.648 43.1374 488.376 43.4092L479.103 52.6826C479.397 53.045 479.697 53.4008 480.009 53.7478L489.362 44.3949C489.634 44.123 489.634 43.681 489.362 43.4092Z" fill="white"/>
<path fill-rule="evenodd" clip-rule="evenodd" d="M500 61.6667C514.175 61.6667 525.667 50.1753 525.667 36C525.667 21.8247 514.175 10.3333 500 10.3333C485.825 10.3333 474.333 21.8247 474.333 36C474.333 50.1753 485.825 61.6667 500 61.6667ZM500 64C515.464 64 528 51.464 528 36C528 20.536 515.464 8 500 8C484.536 8 472 20.536 472 36C472 51.464 484.536 64 500 64Z" fill="#FFD48A"/>
<circle cx="432" cy="36" r="32" fill="#212121"/>
<path fill-rule="evenodd" clip-rule="evenodd" d="M448.263 16.9193C446.269 13.4663 441.854 12.2831 438.401 14.2768L411.605 29.7473C408.152 31.7409 406.969 36.1563 408.962 39.6094C410.956 43.0625 415.371 44.2456 418.824 42.2519L445.62 26.7814C449.073 24.7878 450.256 20.3724 448.263 16.9193Z" fill="#0795B0"/>
<path fill-rule="evenodd" clip-rule="evenodd" d="M449.108 16.4312C446.845 12.5111 441.832 11.168 437.912 13.4312L411.117 28.9017C407.197 31.165 405.853 36.1776 408.117 40.0976C410.38 44.0177 415.392 45.3608 419.313 43.0976L446.108 27.6271C450.028 25.3638 451.371 20.3512 449.108 16.4312ZM438.889 15.1224C441.875 13.3984 445.693 14.4215 447.417 17.4076C449.141 20.3936 448.118 24.2119 445.132 25.9359L418.336 41.4064C415.35 43.1304 411.532 42.1073 409.808 39.1212C408.084 36.1352 409.107 32.3169 412.093 30.5929L438.889 15.1224Z" fill="#08ADCC"/>
<path fill-rule="evenodd" clip-rule="evenodd" d="M448.244 55.0807C446.25 58.5337 441.835 59.7169 438.382 57.7232L411.586 42.2527C408.133 40.2591 406.95 35.8437 408.944 32.3906C410.937 28.9375 415.353 27.7544 418.806 29.7481L445.601 45.2186C449.054 47.2122 450.238 51.6276 448.244 55.0807Z" fill="#00CED1"/>
<path fill-rule="evenodd" clip-rule="evenodd" d="M449.09 55.5688C446.826 59.4889 441.814 60.832 437.894 58.5688L411.098 43.0983C407.178 40.835 405.835 35.8224 408.098 31.9024C410.361 27.9823 415.374 26.6392 419.294 28.9024L446.09 44.3729C450.01 46.6362 451.353 51.6488 449.09 55.5688ZM438.87 56.8776C441.856 58.6016 445.674 57.5785 447.398 54.5924C449.122 51.6064 448.099 47.7881 445.113 46.0641L418.317 30.5936C415.331 28.8696 411.513 29.8927 409.789 32.8788C408.065 35.8648 409.088 39.6831 412.074 41.4071L438.87 56.8776Z" fill="#00E7EB"/>
<circle cx="356" cy="36" r="36" fill="#2B81BF"/>
<mask id="mask2_3031_1365" style="mask-type:luminance" maskUnits="userSpaceOnUse" x="330" y="12" width="55" height="45">
<path d="M384.5 12H330.5V56.9159H384.5V12Z" fill="white"/>
</mask>
<g mask="url(#mask2_3031_1365)">
<path d="M384.284 38.4416C384.18 37.5669 383.49 34.4045 380.605 32.053C379.479 31.1242 378.008 30.2936 376.095 29.7187C375.478 26.4162 374.053 23.3164 371.948 20.6935C367.833 15.5211 361.268 12.1302 353.856 12.0123L353.838 12V12.0123C353.575 12.0123 353.311 12.0123 353.047 12.0123V12L353.035 12.0123C346.729 12.1229 340.702 14.639 336.436 18.9538C332.533 22.9025 330.426 28.0036 330.5 33.3209C330.551 36.6381 330.613 37.6553 331.022 44.3045C331.108 45.6977 331.209 47.3366 331.328 49.2974C331.343 49.6118 331.434 49.9179 331.594 50.1894C334.174 54.4034 347.796 54.9317 354.452 54.9317C356.508 54.9317 357.973 54.8875 358.224 54.8752C358.793 55.1148 362.941 56.8409 364.877 56.9147C365.158 56.9244 365.438 56.8878 365.707 56.8065L369.571 55.6345C369.712 55.5918 369.833 55.5036 369.917 55.3837C370.001 55.2639 370.043 55.1195 370.035 54.9735L369.899 52.2804C369.892 52.1297 369.943 51.9819 370.041 51.8666C370.138 51.7514 370.276 51.6772 370.426 51.6588C375.441 51.0567 378.586 52.4647 379.726 52.9267C379.811 52.9604 379.901 52.9763 379.992 52.9733C380.083 52.9704 380.172 52.9486 380.254 52.9095L383.925 51.1575C384.032 51.1062 384.122 51.0274 384.187 50.9292C384.252 50.831 384.289 50.7172 384.295 50.5997C384.392 48.7962 384.713 41.808 384.284 38.4416ZM378.403 39.8889C377.442 39.626 375.675 39.2746 373.069 39.2464C373.767 38.7573 374.568 38.4345 375.41 38.3028C376.396 38.2021 377.175 38.4601 377.806 39.0867C378.042 39.3273 378.247 39.5973 378.414 39.8901L378.403 39.8889ZM377.828 31.7127L376.448 37.5239C376.071 37.4632 375.687 37.4533 375.307 37.4944H375.285C374.698 37.5891 374.127 37.7618 373.587 38.008L371.529 33.5003C372.54 32.7262 373.69 32.1523 374.917 31.8097C375.866 31.5456 376.863 31.5102 377.828 31.7065V31.7127ZM342.922 37.9908C339.472 37.6345 336.618 37.1774 334.556 36.7917C334.524 35.6958 334.479 32.1599 335.108 29.2088C337.079 29.5602 339.839 29.9853 343.149 30.3268C342.863 34.0212 342.892 36.8691 342.922 37.9846V37.9908ZM338.868 28.882C339.287 25.2208 340.593 23.4123 341.027 22.8988C342.744 23.1838 344.78 23.459 347.079 23.6482C346.443 25.6041 346.318 28.5208 346.295 29.6929C343.489 29.4705 340.973 29.1756 338.868 28.8759V28.882ZM344.176 22.4258C344.442 21.5805 345.243 19.4207 347.064 17.0593C349.075 17.3445 351.101 17.5013 353.131 17.5286V22.9934C350.138 22.9802 347.147 22.7906 344.176 22.4258ZM347.232 29.7556C347.256 28.6129 347.385 25.5267 348.045 23.7158C349.731 23.8387 351.544 23.905 353.466 23.905C355.462 23.905 357.572 23.8288 359.777 23.647C360.583 25.5267 360.487 28.7407 360.425 29.8538C356.03 30.096 351.623 30.0632 347.232 29.7556ZM360.724 17.0372C361.971 18.6248 362.942 20.4108 363.594 22.3201C360.436 22.7434 357.254 22.9683 354.068 22.9934V17.5286C356.295 17.5187 358.519 17.3545 360.724 17.0372ZM360.751 23.5635C362.909 23.3595 365.157 23.0524 367.466 22.6199C368.556 24.5528 369.358 26.6338 369.846 28.7972C367.039 29.2748 364.208 29.6078 361.367 29.7949C361.433 28.5859 361.497 25.5931 360.751 23.561V23.5635ZM354.255 30.935H354.733C358.182 30.9399 361.629 30.7578 365.058 30.3895C364.871 30.4952 364.688 30.6033 364.506 30.7187C361.943 32.3651 360.038 34.9942 358.853 38.4662C357.283 38.5375 355.746 38.5719 354.255 38.5743V30.935ZM364.452 31.7409L370.285 33.5003C368.067 35.4955 366.502 38.2917 365.566 41.0511L359.366 39.5596C360.26 36.498 361.818 33.633 364.452 31.7336V31.7409ZM370.866 34.0482L372.86 38.4048C371.463 39.2869 370.551 40.6605 369.962 42.147L366.364 41.2969C367.232 38.7168 368.678 35.9771 370.866 34.0408V34.0482ZM376.667 30.7752C376.001 30.7689 375.338 30.8549 374.696 31.0308C373.367 31.4034 372.124 32.0311 371.036 32.8786L365.344 31.1586C367.135 30.1192 369.242 29.6376 371.463 29.7629C373.533 29.8784 375.245 30.2445 376.667 30.7679V30.7752ZM375.102 29.4459C374.439 29.291 373.768 29.1721 373.091 29.0896C373.708 28.957 374.316 28.8193 374.925 28.6694C374.996 28.9324 375.053 29.1904 375.102 29.4459ZM374.681 27.7873C373.377 28.1068 372.072 28.3861 370.765 28.6252C370.286 26.4612 369.502 24.3756 368.437 22.4307C369.474 22.2243 370.531 21.986 371.588 21.7255C372.965 23.5537 374.013 25.6065 374.686 27.7922L374.681 27.7873ZM370.962 20.9318C368.767 21.4626 366.618 21.8704 364.533 22.1776C364.27 21.3176 363.513 19.229 361.768 16.8627C362.918 16.6686 364.097 16.4229 365.305 16.1256C367.457 17.3913 369.372 19.019 370.967 20.9367L370.962 20.9318ZM353.198 13.2998C353.274 13.2595 353.358 13.2384 353.444 13.2384C353.53 13.2384 353.615 13.2595 353.691 13.2998C355.79 14.4351 357.007 15.5629 357.702 16.4598C354.881 16.6937 352.045 16.674 349.228 16.4008C349.935 15.5113 351.143 14.408 353.198 13.2998ZM351.663 12.9927C351.674 12.992 351.686 12.9952 351.695 13.0018C351.705 13.0084 351.712 13.018 351.715 13.029C351.718 13.0401 351.718 13.052 351.714 13.0627C351.71 13.0735 351.702 13.0826 351.692 13.0885C350.122 14.0616 348.935 15.1329 348.153 16.2829C346.423 16.0798 344.708 15.7655 343.018 15.3418C345.722 14.0129 348.657 13.2153 351.663 12.9927ZM337.089 19.5951C338.499 18.1737 340.099 16.9525 341.843 15.9659C343.212 16.3634 344.604 16.6753 346.012 16.8996C344.196 19.374 343.454 21.5412 343.232 22.3054C340.771 21.9826 338.332 21.5049 335.931 20.8753C336.298 20.4355 336.68 20.0079 337.089 19.5951ZM331.421 33.3061C331.399 31.7132 331.584 30.1242 331.971 28.5786C332.304 28.6547 333.065 28.8243 334.189 29.0331C333.573 31.9424 333.585 35.2891 333.617 36.6061C332.666 36.4145 331.949 36.2547 331.49 36.1466C331.453 35.2596 331.436 34.4119 331.419 33.3061H331.421ZM331.53 37.1418C332.483 37.3605 334.196 37.7241 336.512 38.1025V44.8819C333.994 44.2749 332.459 43.6852 331.89 43.4518C331.7 40.3484 331.591 38.5768 331.527 37.1418H331.53ZM341.995 46.8599V53.3026C339.605 52.9857 337.365 52.5286 335.613 51.8824L335.482 45.5945L335.83 45.6829L336.053 45.7382C336.151 45.7628 336.25 45.7873 336.352 45.8107C336.455 45.834 336.556 45.8598 336.66 45.8832L337.03 45.9667L337.31 46.0282L337.793 46.1314C337.972 46.1694 338.162 46.2063 338.343 46.2432C338.807 46.3357 339.293 46.4254 339.802 46.5122C340.213 46.5819 340.64 46.6502 341.084 46.7174C341.408 46.7653 341.74 46.8132 342.082 46.8587L341.995 46.8599ZM339.563 45.5207L339.281 45.4692L339.001 45.4176L338.729 45.3647L338.463 45.3119L338.2 45.2591L337.708 45.1559L337.443 45.0981V38.25C339.813 38.6186 342.719 38.9773 346.026 39.223V46.339C344.7 46.2358 343.492 46.1055 342.408 45.963C341.388 45.8291 340.437 45.6792 339.561 45.5207H339.563ZM353.134 53.998C350.248 53.9661 346.48 53.8309 342.932 53.4156V46.9656C346.241 47.3562 349.572 47.5466 352.905 47.5356H353.134V53.998ZM354.07 53.998V47.5234C355.152 47.5111 356.278 47.4791 357.449 47.4275C357.413 49.6112 357.542 51.7944 357.835 53.9587C357.318 53.9832 355.94 54.0177 354.068 54.0078L354.07 53.998ZM357.564 45.0048C357.525 45.506 357.495 46.0023 357.476 46.4889C353.974 46.6561 350.466 46.6258 346.968 46.398V39.2894C349.208 39.4343 351.618 39.5203 354.156 39.5203C355.581 39.5203 357.049 39.4908 358.548 39.427C358.033 41.2521 357.703 43.1239 357.562 45.0146L357.564 45.0048ZM364.506 46.683C364.499 47.1278 364.491 47.7469 364.489 48.4595L358.291 46.7936C358.352 44.6202 358.641 42.4592 359.154 40.346L365.314 41.8276C364.83 43.4031 364.558 45.0359 364.506 46.683ZM365.492 56.0203C365.492 54.9244 365.292 51.7693 365.3 49.3146L368.929 49.1033C368.939 49.2385 368.952 49.693 368.952 49.7004L369.218 54.8949L365.492 56.0203ZM368.915 48.3121L365.307 48.5308C365.307 47.7224 365.319 47.1793 365.327 46.6879C365.349 45.5183 365.595 43.8622 366.125 42.0684L369.681 42.9211C369.135 44.6667 368.873 46.4886 368.907 48.317L368.915 48.3121ZM373.212 50.6833C373.047 50.6833 372.877 50.6833 372.707 50.6833C371.745 50.6826 370.785 50.7607 369.836 50.9167L369.772 49.6414C369.772 49.6353 369.772 49.5984 369.765 49.5358C369.764 49.5247 369.764 49.5137 369.765 49.5026C369.765 49.4903 369.765 49.478 369.765 49.4645C369.765 49.4596 369.765 49.4547 369.765 49.4498C369.765 49.4387 369.765 49.4264 369.765 49.4129C369.765 49.3626 369.757 49.3048 369.755 49.2397C369.752 49.1746 369.755 49.1168 369.748 49.0517C369.748 49.0222 369.748 48.9903 369.748 48.9571C369.748 48.7765 369.739 48.5627 369.74 48.3244C369.74 48.2605 369.74 48.1941 369.74 48.1266C369.74 48.0836 369.74 48.0394 369.74 47.9951C369.74 47.8809 369.74 47.7617 369.75 47.6388C369.75 47.5774 369.752 47.5147 369.757 47.4509C369.757 47.387 369.757 47.328 369.767 47.258C369.777 47.188 369.773 47.1265 369.778 47.0589C369.783 46.9913 369.787 46.9238 369.792 46.855C369.797 46.7862 369.802 46.7174 369.808 46.6474L369.819 46.5245C369.819 46.4655 369.83 46.4016 369.836 46.3451C369.836 46.3034 369.845 46.2604 369.849 46.2223C369.856 46.1498 369.865 46.0773 369.873 46.0048L369.892 45.8537C369.898 45.8021 369.904 45.7505 369.911 45.6989C369.919 45.6473 369.925 45.6031 369.932 45.5551C369.942 45.4802 369.953 45.4041 369.967 45.3266C369.98 45.2492 369.994 45.1522 370.01 45.065C370.021 44.9962 370.033 44.9273 370.046 44.8585C371.106 44.8397 372.165 44.8857 373.22 44.9962L373.212 50.6833ZM379.533 46.4742C379.515 46.9988 379.484 47.3476 379.478 47.4177C379.477 47.4201 379.477 47.4226 379.478 47.4251L379.253 51.8234C377.571 51.2178 375.813 50.8457 374.029 50.7177V45.0883C377.356 45.5404 379.502 46.4668 379.532 46.4815V46.4742H379.533ZM370.215 44.0317C370.564 42.5918 371.161 41.147 372.154 40.0511C376.198 39.9749 378.438 40.717 378.876 40.8792C379.014 41.2678 379.126 41.6651 379.211 42.0684C379.441 43.2345 379.551 44.4209 379.538 45.6092C378.498 45.2038 374.962 43.9875 370.207 44.0366L370.215 44.0317ZM383.498 50.4572L380.055 52.1011L380.29 47.4865C380.297 47.4275 380.331 47.0442 380.354 46.4643L383.68 44.8794C383.634 47.3833 383.528 49.725 383.49 50.4621L383.498 50.4572ZM383.685 43.9727L380.366 45.5576C380.366 44.1619 380.225 42.2527 379.649 40.6433L383.234 37.4317C383.343 37.7973 383.425 38.1701 383.481 38.5473C383.653 39.8423 383.695 41.9087 383.678 43.9776L383.685 43.9727Z" fill="#00142D"/>
<path d="M375.102 29.4456C374.439 29.2907 373.768 29.1718 373.092 29.0893C373.708 28.9567 374.316 28.8191 374.925 28.6692C374.996 28.9321 375.053 29.1901 375.102 29.4456Z" fill="#F5FDFF"/>
<path d="M383.671 44.8843C383.634 47.3881 383.528 49.7249 383.491 50.462L380.049 52.1059L380.283 47.4913C380.29 47.4324 380.325 47.049 380.347 46.4692L383.671 44.8843Z" fill="#F5FDFF"/>
<path d="M383.679 43.9778L380.36 45.5627C380.36 44.167 380.219 42.2578 379.642 40.6483L383.235 37.4319C383.344 37.7974 383.426 38.1702 383.482 38.5474C383.654 39.8424 383.696 41.9088 383.679 43.9778Z" fill="#F5FDFF"/>
<path d="M378.406 39.8888C377.445 39.6259 375.676 39.2745 373.064 39.245C373.762 38.7559 374.563 38.4331 375.405 38.3015C376.391 38.2007 377.169 38.4587 377.8 39.0853C378.036 39.326 378.24 39.5961 378.406 39.8888Z" fill="#F5FDFF"/>
<path d="M379.538 45.609C378.498 45.2035 374.961 43.9872 370.206 44.0364C370.555 42.5965 371.152 41.1517 372.145 40.0558C376.189 39.9796 378.429 40.7216 378.867 40.8838C379.414 42.395 379.538 44.2575 379.538 45.609Z" fill="#F5FDFF"/>
<path d="M373.206 44.9898V50.688C373.041 50.688 372.871 50.688 372.701 50.688C371.739 50.6873 370.779 50.7654 369.83 50.9214L369.766 49.6412C369.66 48.0417 369.749 46.4351 370.032 44.8571C371.092 44.8367 372.152 44.881 373.206 44.9898Z" fill="#F5FDFF"/>
<path d="M379.525 46.4742C379.505 47.0467 379.471 47.4104 379.469 47.4301L379.244 51.8333C377.562 51.2277 375.804 50.8556 374.02 50.7276V45.0884C377.347 45.5405 379.493 46.4668 379.523 46.4816L379.525 46.4742Z" fill="#F5FDFF"/>
<path d="M369.219 54.89L365.485 56.0252C365.485 54.9293 365.286 51.7743 365.293 49.3195L368.93 49.1033C368.94 49.2384 368.952 49.693 368.952 49.7004L369.219 54.89Z" fill="#F5FDFF"/>
<path d="M368.908 48.317L365.301 48.5356C365.301 47.7272 365.313 47.1842 365.321 46.6928C365.343 45.5231 365.589 43.867 366.119 42.0732L369.682 42.921C369.136 44.6666 368.874 46.4886 368.908 48.317Z" fill="#F5FDFF"/>
<path d="M372.861 38.3978C371.464 39.28 370.552 40.6535 369.963 42.1401L366.365 41.2899C367.228 38.7173 368.679 35.9775 370.867 34.0413L372.861 38.3978Z" fill="#F5FDFF"/>
<path d="M377.829 31.7068L376.449 37.518C376.072 37.4573 375.688 37.4474 375.308 37.4885H375.286C374.699 37.5832 374.128 37.7559 373.588 38.002L371.53 33.5005C372.541 32.7264 373.691 32.1526 374.919 31.81C375.867 31.5458 376.864 31.5104 377.829 31.7068Z" fill="#F5FDFF"/>
<path d="M376.667 30.7681C376.001 30.7617 375.338 30.8477 374.696 31.0236C373.367 31.3985 372.123 32.0286 371.036 32.8788L365.344 31.1588C367.136 30.1194 369.243 29.6378 371.463 29.7631C373.533 29.8786 375.245 30.2447 376.667 30.7681Z" fill="#F5FDFF"/>
<path d="M370.286 33.5003C368.068 35.4956 366.503 38.2918 365.567 41.0512L359.367 39.5597C360.261 36.4981 361.819 33.633 364.453 31.7336L370.286 33.5003Z" fill="#F5FDFF"/>
<path d="M365.318 41.8279C364.833 43.4032 364.56 45.0361 364.507 46.6832C364.5 47.128 364.492 47.7472 364.49 48.4598L358.292 46.7938C358.353 44.6205 358.642 42.4595 359.155 40.3462L365.318 41.8279Z" fill="#F5FDFF"/>
<path d="M357.833 53.9684C357.318 53.9831 355.941 54.0175 354.068 54.0077V47.533C355.15 47.5208 356.276 47.4888 357.446 47.4373C357.41 49.6209 357.54 51.8041 357.833 53.9684Z" fill="#F5FDFF"/>
<path d="M342.074 46.8599H341.993V53.3027C339.602 52.9857 337.362 52.5286 335.61 51.8824L335.48 45.5945C337.65 46.1479 339.852 46.5705 342.074 46.8599Z" fill="#F5FDFF"/>
<path d="M353.131 47.5381V54.0029C350.246 53.9709 346.478 53.8358 342.929 53.4205V46.9705C346.239 47.3611 349.569 47.5514 352.902 47.5405L353.131 47.5381Z" fill="#F5FDFF"/>
<path d="M358.547 39.4318C358.033 41.2554 357.703 43.1256 357.561 45.0145C357.522 45.5158 357.492 46.0122 357.472 46.4987C353.971 46.6659 350.463 46.6356 346.965 46.4078V39.2893C349.207 39.4343 351.617 39.5203 354.156 39.5203C355.58 39.5203 357.049 39.4957 358.547 39.4318Z" fill="#F5FDFF"/>
<path d="M346.024 39.223V46.339C344.698 46.2358 343.491 46.1056 342.407 45.9631C340.494 45.7173 338.841 45.4077 337.441 45.1031V38.25C339.817 38.6161 342.722 38.9773 346.024 39.223Z" fill="#F5FDFF"/>
<path d="M336.51 38.1023V44.8817C333.994 44.2747 332.459 43.685 331.889 43.4516C331.7 40.3506 331.591 38.579 331.527 37.144C332.481 37.3602 334.196 37.7239 336.51 38.1023Z" fill="#F5FDFF"/>
<path d="M333.612 36.6064C332.66 36.4148 331.943 36.255 331.485 36.1469C331.453 35.2599 331.436 34.4122 331.418 33.3064C331.396 31.7135 331.581 30.1245 331.968 28.5789C332.301 28.655 333.062 28.8246 334.186 29.0334C333.57 31.9427 333.58 35.2894 333.612 36.6064Z" fill="#F5FDFF"/>
<path d="M342.921 37.9848C339.471 37.6285 336.618 37.1715 334.555 36.7857C334.523 35.6898 334.479 32.154 335.107 29.2029C337.078 29.5543 339.838 29.9794 343.148 30.3209C342.862 34.0214 342.892 36.8693 342.921 37.9848Z" fill="#F5FDFF"/>
<path d="M365.058 30.3823C364.871 30.488 364.689 30.5961 364.506 30.7116C361.944 32.3579 360.039 34.9871 358.853 38.4591C357.284 38.5303 355.746 38.5647 354.255 38.5672V30.9278H354.733C358.182 30.9328 361.629 30.7507 365.058 30.3823Z" fill="#F5FDFF"/>
<path d="M374.687 27.7921C373.383 28.1115 372.078 28.3908 370.771 28.63C370.291 26.464 369.505 24.3767 368.437 22.4306C369.475 22.2242 370.532 21.9858 371.589 21.7253C372.966 23.5536 374.014 25.6063 374.687 27.7921Z" fill="#F5FDFF"/>
<path d="M370.968 20.9368C368.772 21.4676 366.624 21.8755 364.539 22.1826C364.275 21.3226 363.519 19.234 361.774 16.8678C362.924 16.6736 364.103 16.4279 365.31 16.1306C367.46 17.3953 369.374 19.0213 370.968 20.9368Z" fill="#F5FDFF"/>
<path d="M351.692 13.0888C350.123 14.0619 348.935 15.1332 348.154 16.2832C346.423 16.0801 344.708 15.7658 343.018 15.3421C345.722 14.0132 348.657 13.2156 351.663 12.993C351.674 12.9923 351.686 12.9955 351.695 13.0021C351.705 13.0087 351.712 13.0183 351.715 13.0293C351.719 13.0404 351.718 13.0523 351.714 13.063C351.71 13.0738 351.702 13.0829 351.692 13.0888Z" fill="#F5FDFF"/>
<path d="M357.703 16.4599C354.882 16.6938 352.045 16.6741 349.228 16.4009C349.933 15.5114 351.14 14.4081 353.196 13.3C353.271 13.2596 353.356 13.2385 353.442 13.2385C353.528 13.2385 353.613 13.2596 353.688 13.3C355.79 14.4352 357.008 15.563 357.703 16.4599Z" fill="#F5FDFF"/>
<path d="M353.13 17.5284V22.9932C350.137 22.98 347.147 22.7904 344.175 22.4256C344.442 21.5803 345.242 19.4204 347.064 17.0591C349.074 17.3443 351.1 17.501 353.13 17.5284Z" fill="#F5FDFF"/>
<path d="M346.012 16.8998C344.196 19.3742 343.454 21.5414 343.233 22.3056C340.771 21.9827 338.332 21.5051 335.931 20.8755C336.301 20.4356 336.68 20.0081 337.089 19.5953C338.499 18.1739 340.099 16.9527 341.843 15.9661C343.212 16.3636 344.604 16.6755 346.012 16.8998Z" fill="#F5FDFF"/>
<path d="M347.079 23.642C346.444 25.5979 346.318 28.5146 346.296 29.6866C343.489 29.4704 340.978 29.1756 338.868 28.8758C339.287 25.2146 340.593 23.4061 341.027 22.8926C342.745 23.1801 344.78 23.4528 347.079 23.642Z" fill="#F5FDFF"/>
<path d="M360.425 29.8538C356.029 30.0959 351.623 30.0631 347.231 29.7555C347.256 28.6129 347.384 25.5267 348.044 23.7158C349.73 23.8386 351.544 23.905 353.466 23.905C355.462 23.905 357.571 23.8288 359.777 23.647C360.582 25.5267 360.486 28.7407 360.425 29.8538Z" fill="#F5FDFF"/>
<path d="M361.367 29.7924C361.433 28.581 361.498 25.5931 360.751 23.561C362.91 23.357 365.157 23.0499 367.466 22.6174C368.556 24.5503 369.358 26.6313 369.846 28.7948C367.039 29.2724 364.209 29.6053 361.367 29.7924Z" fill="#F5FDFF"/>
<path d="M363.595 22.3203C360.436 22.7436 357.254 22.9685 354.068 22.9936V17.5288C356.295 17.5163 358.518 17.3496 360.721 17.03C361.971 18.6196 362.942 20.4082 363.595 22.3203Z" fill="#F5FDFF"/>
<path d="M364.111 15.4291C362.35 15.8294 360.567 16.1256 358.771 16.3162C357.96 15.0876 356.696 13.9573 354.998 12.9302C358.176 13.129 361.278 13.9797 364.111 15.4291Z" fill="#80ABFF"/>
<path d="M339.97 22.6665C339.323 23.5719 338.303 25.4664 337.927 28.6963C334.883 28.2368 332.839 27.7983 332.199 27.6545C332.867 25.4709 333.918 23.4229 335.304 21.6062C335.993 21.8052 337.613 22.2352 339.97 22.6665Z" fill="#80ABFF"/>
<path d="M353.305 30.8749V38.5191C349.865 38.4933 346.678 38.3016 343.852 38.0338C343.793 35.4771 343.867 32.919 344.074 30.3699C346.842 30.6328 349.967 30.8294 353.305 30.8749Z" fill="#80ABFF"/>
<path d="M334.654 51.4488C333.597 50.9574 332.797 50.3701 332.369 49.671C332.287 49.5272 332.241 49.3658 332.235 49.2005C332.123 47.3465 332.026 45.7826 331.943 44.4434C332.489 44.6535 333.346 44.9569 334.524 45.2936L334.654 51.4488Z" fill="#80ABFF"/>
<path d="M364.472 56.0195C362.685 55.7737 359.514 54.4886 358.681 54.1434C358.369 51.9725 358.229 49.7805 358.262 47.5876L364.474 49.2561C364.462 51.7366 364.469 54.8707 364.472 56.0195Z" fill="#80ABFF"/>
<path d="M382.928 36.5473L379.291 39.7981C379.057 39.3051 378.743 38.8538 378.362 38.4626C378.038 38.1375 377.653 37.8791 377.23 37.7021L378.609 31.8823C379.092 32.0491 379.551 32.2788 379.973 32.5654C381.288 33.6148 382.306 34.987 382.928 36.5473Z" fill="#80ABFF"/>
<path d="M331.943 44.4434C332.019 45.7948 332.133 47.3551 332.238 49.214C332.245 49.3804 332.293 49.5424 332.378 49.6858C332.545 49.9489 332.748 50.1871 332.982 50.3935C333.482 50.8281 334.046 51.184 334.654 51.4488L334.524 45.2948C333.344 44.9508 332.49 44.6584 331.943 44.4434Z" fill="#6691E5"/>
<path d="M337.446 45.0984V43.6757C338.102 44.2814 338.808 44.9043 339.561 45.5185C338.802 45.3847 338.096 45.2421 337.446 45.0984ZM357.833 53.9688C356.563 53.8092 355.305 53.5667 354.067 53.2427V54.0081C355.94 54.0179 357.318 53.9835 357.833 53.9688ZM335.61 51.8802C337.362 52.5264 339.602 52.9859 341.993 53.3004V47.3958C341.68 47.1723 341.377 46.945 341.075 46.7177C339.191 46.4417 337.324 46.0669 335.48 45.5948L335.61 51.8802ZM353.131 54.0007V52.9798C349.294 51.8532 345.862 50.0459 342.929 48.0482V53.4183C346.478 53.8361 350.245 53.9712 353.131 54.0032V54.0007ZM336.51 44.8822V42.7936C333.306 39.6803 331.527 37.1421 331.527 37.1421C331.591 38.5771 331.7 40.3487 331.889 43.4496C332.459 43.6855 333.994 44.2752 336.51 44.8822Z" fill="#DBE3E5"/>
<path d="M378.869 40.889C379.416 42.3989 379.539 44.2627 379.539 45.6142C378.499 45.2087 374.963 43.9924 370.207 44.0416C370.557 42.6017 371.153 41.1568 372.146 40.0609C376.19 39.9847 378.43 40.7256 378.869 40.889ZM377.799 39.0855C377.168 38.4589 376.385 38.1996 375.404 38.3016C374.562 38.4334 373.761 38.7557 373.063 39.2439C375.675 39.2722 377.444 39.626 378.405 39.889C378.239 39.5962 378.035 39.3262 377.799 39.0855ZM374.021 45.0932V50.7349C374.629 50.7779 375.203 50.8479 375.738 50.9339C376.869 51.1152 377.983 51.3961 379.064 51.773L379.243 51.8369L379.467 47.4349C379.467 47.414 379.504 47.0516 379.524 46.4791V46.4852C379.494 46.4717 377.343 45.5404 374.021 45.0932ZM370.032 44.8574C369.923 45.4493 369.843 46.0463 369.794 46.6462C369.771 46.9263 369.753 47.1966 369.742 47.4497C369.742 47.5136 369.74 47.5762 369.735 47.6377C369.726 47.8833 369.723 48.1143 369.723 48.3232C369.723 48.6918 369.73 48.9977 369.74 49.2213C369.74 49.3171 369.748 49.3982 369.752 49.467C369.76 49.5739 369.764 49.6353 369.766 49.6439L369.83 50.9241C370.779 50.7681 371.739 50.69 372.701 50.6907C372.871 50.6907 373.041 50.6907 373.206 50.6907V44.9949C372.152 44.8833 371.092 44.8373 370.032 44.8574Z" fill="#DBE3E5"/>
</g>
<defs>
<linearGradient id="paint0_linear_3031_1365" x1="132" y1="8" x2="132" y2="64" gradientUnits="userSpaceOnUse">
<stop stop-color="#4E49FF"/>
<stop offset="1" stop-color="#3BEDFF"/>
</linearGradient>
<linearGradient id="paint1_linear_3031_1365" x1="123.044" y1="25.9119" x2="162.779" y2="71.9266" gradientUnits="userSpaceOnUse">
<stop stop-color="white"/>
<stop offset="1" stop-color="white" stop-opacity="0"/>
</linearGradient>
<linearGradient id="paint2_linear_3031_1365" x1="130.164" y1="33.4434" x2="169.899" y2="79.4581" gradientUnits="userSpaceOnUse">
<stop stop-color="white"/>
<stop offset="1" stop-color="white" stop-opacity="0"/>
</linearGradient>
<linearGradient id="paint3_linear_3031_1365" x1="136.34" y1="41.4725" x2="176.076" y2="87.4872" gradientUnits="userSpaceOnUse">
<stop stop-color="white"/>
<stop offset="1" stop-color="white" stop-opacity="0"/>
</linearGradient>
<linearGradient id="paint4_linear_3031_1365" x1="143.34" y1="48.8843" x2="183.076" y2="94.899" gradientUnits="userSpaceOnUse">
<stop stop-color="white"/>
<stop offset="1" stop-color="white" stop-opacity="0"/>
</linearGradient>
<linearGradient id="paint5_linear_3031_1365" x1="200" y1="4" x2="200" y2="68" gradientUnits="userSpaceOnUse">
<stop stop-color="#F89791"/>
<stop offset="1" stop-color="#F7C882"/>
</linearGradient>
<radialGradient id="paint6_radial_3031_1365" cx="0" cy="0" r="1" gradientUnits="userSpaceOnUse" gradientTransform="translate(199.942 57.677) rotate(-90.4664) scale(23.2133 27.6689)">
<stop stop-color="#C5C6AB"/>
<stop offset="1" stop-color="#7985AB"/>
</radialGradient>
<radialGradient id="paint7_radial_3031_1365" cx="0" cy="0" r="1" gradientUnits="userSpaceOnUse" gradientTransform="translate(199.974 30.5215) scale(0.6144)">
<stop stop-color="#0066FF" stop-opacity="0"/>
<stop offset="1" stop-color="#00C2FF" stop-opacity="0.4"/>
</radialGradient>
<radialGradient id="paint8_radial_3031_1365" cx="0" cy="0" r="1" gradientUnits="userSpaceOnUse" gradientTransform="translate(199.962 33.5041) scale(0.717005)">
<stop stop-color="#AEE6F9" stop-opacity="0.8588"/>
<stop offset="1" stop-color="#C8D6DC"/>
</radialGradient>
<linearGradient id="paint9_linear_3031_1365" x1="193.83" y1="10.3999" x2="193.83" y2="35.9999" gradientUnits="userSpaceOnUse">
<stop stop-color="#77D4FF"/>
<stop offset="1" stop-color="#93D6F2" stop-opacity="0.898"/>
</linearGradient>
<linearGradient id="paint10_linear_3031_1365" x1="206.118" y1="10.3999" x2="206.118" y2="35.9999" gradientUnits="userSpaceOnUse">
<stop stop-color="#506AAC"/>
<stop offset="1" stop-color="#96CFEF" stop-opacity="0.8196"/>
</linearGradient>
<linearGradient id="paint11_linear_3031_1365" x1="275.619" y1="37.9693" x2="275.619" y2="10.2778" gradientUnits="userSpaceOnUse">
<stop stop-color="#B7DCE2"/>
<stop offset="0.6608" stop-color="#3BA4B6"/>
<stop offset="1" stop-color="#008AA1"/>
</linearGradient>
<linearGradient id="paint12_linear_3031_1365" x1="275.754" y1="38.1294" x2="299.735" y2="51.9755" gradientUnits="userSpaceOnUse">
<stop stop-color="#F2E5B2"/>
<stop offset="0.1013" stop-color="#F0DF9E"/>
<stop offset="0.4039" stop-color="#E9CE68"/>
<stop offset="0.6655" stop-color="#E4C240"/>
<stop offset="0.8728" stop-color="#E1BB28"/>
<stop offset="1" stop-color="#E0B81F"/>
</linearGradient>
<linearGradient id="paint13_linear_3031_1365" x1="251.526" y1="52.0314" x2="275.507" y2="38.1857" gradientUnits="userSpaceOnUse">
<stop offset="0.1437" stop-color="#2D0060"/>
<stop offset="1" stop-color="#9374B6"/>
</linearGradient>
<radialGradient id="paint14_radial_3031_1365" cx="0" cy="0" r="1" gradientUnits="userSpaceOnUse" gradientTransform="translate(500 36) rotate(90) scale(28)">
<stop offset="0.796875" stop-color="#FF5C59" stop-opacity="0"/>
<stop offset="1" stop-color="#FF5C59"/>
</radialGradient>
</defs>
</svg>
